<?xml version="1.0" encoding="UTF-8" standalone="no"?>
<!-- Created with Inkscape (http://www.inkscape.org/) -->

<svg
   width="336"
   height="400"
   viewBox="0 0 88.899999 105.83333"
   version="1.1"
   id="svg1"
   xml:space="preserve"
   inkscape:version="1.4.2 (ebf0e940d0, 2025-05-08)"
   sodipodi:docname="logo.svg"
   xmlns:inkscape="http://www.inkscape.org/namespaces/inkscape"
   xmlns:sodipodi="http://sodipodi.sourceforge.net/DTD/sodipodi-0.dtd"
   xmlns="http://www.w3.org/2000/svg"
   xmlns:svg="http://www.w3.org/2000/svg"><sodipodi:namedview
     id="namedview1"
     pagecolor="#505050"
     bordercolor="#eeeeee"
     borderopacity="1"
     inkscape:showpageshadow="0"
     inkscape:pageopacity="0"
     inkscape:pagecheckerboard="0"
     inkscape:deskcolor="#505050"
     inkscape:document-units="mm"
     inkscape:zoom="1.7930366"
     inkscape:cx="100.1095"
     inkscape:cy="195.7573"
     inkscape:window-width="1890"
     inkscape:window-height="1015"
     inkscape:window-x="12"
     inkscape:window-y="12"
     inkscape:window-maximized="1"
     inkscape:current-layer="layer1" /><defs
     id="defs1">
	
	
	
	
	
	
	
	
	
	
	
	
	
	
	
	
	
	
</defs><g
     inkscape:label="Layer 1"
     inkscape:groupmode="layer"
     id="layer1"><path
       id="path1"
       style="fill:#000000;stroke-width:1.9834;stroke-linecap:round;stroke-linejoin:round;stroke-miterlimit:3.9;fill-opacity:1"
       d="M 0 0 L 0 61.383333 A 44.450001 44.450001 0 0 0 44.45 105.83333 A 44.450001 44.450001 0 0 0 88.9 61.383333 L 88.9 0 L 0 0 z M 76.100264 36.817908 C 76.100264 36.817908 78.859426 41.235923 80.529968 48.933447 L 49.709111 54.224597 C 49.575008 53.75332 49.402652 53.297347 49.199581 52.856722 L 76.100264 36.817908 z M 38.022485 37.795626 C 38.646963 37.800475 39.387875 37.828751 40.25284 37.894845 L 40.256458 37.894845 L 40.256458 47.515446 C 39.685561 47.549929 39.126519 47.634557 38.586275 47.76866 L 35.321358 37.974943 C 35.321358 37.974943 36.149052 37.781077 38.022485 37.795626 z M 42.080636 38.025069 C 42.080636 38.025069 44.685996 38.427481 46.574935 39.086503 L 43.367896 47.85651 C 42.819989 47.699418 42.252716 47.59234 41.670325 47.5387 L 42.080636 38.025069 z M 33.562809 38.247278 L 37.153288 48.251318 C 36.636032 48.473547 36.145157 48.737815 35.681543 49.048169 L 28.233419 39.741243 C 28.233419 39.741243 30.63936 38.70706 33.562809 38.247278 z M 48.298861 39.680265 C 48.298861 39.680265 50.94675 40.714564 52.490853 41.699264 L 46.337223 49.331873 C 45.816136 48.944889 45.249255 48.607589 44.651538 48.335551 L 48.298861 39.680265 z M 26.823169 40.412004 L 34.283179 50.190218 C 33.861712 50.607854 33.482741 51.063524 33.149398 51.553959 L 21.332548 43.473315 C 21.332548 43.473315 23.531893 41.718552 26.823169 40.412004 z M 53.946578 42.61497 C 53.946578 42.61497 55.977575 43.82952 57.935482 45.925362 L 48.390845 51.446472 C 47.996199 50.88707 47.544233 50.369915 47.038472 49.910132 L 53.946578 42.61497 z M 19.715592 45.055648 L 32.581991 52.504289 C 32.30229 53.048365 32.072583 53.623263 31.903996 54.22098 L 14.987716 50.711117 C 14.987716 50.711117 15.872577 48.661108 19.715592 45.055648 z M 80.866899 51.136414 C 80.866899 51.136414 81.901242 58.190027 80.740291 62.918123 L 50.046041 57.25542 C 50.057571 57.086833 50.061544 56.921712 50.061544 56.753125 C 50.061544 56.431277 50.042068 56.113362 50.011418 55.799178 L 80.866899 51.136414 z M 13.987777 52.450545 L 31.616675 55.668953 C 31.574525 56.025284 31.551562 56.385299 31.551562 56.753125 C 31.551562 56.998342 31.562892 57.23986 31.582052 57.481246 L 11.048938 60.316732 C 11.048938 60.316732 10.96854 57.929619 13.987777 52.450545 z M 49.847087 58.745768 L 80.265385 65.328312 C 80.265385 65.328312 78.935779 71.991162 76.161759 76.129203 L 49.283813 60.473828 C 49.525198 59.922089 49.716815 59.347317 49.847087 58.745768 z M 31.812012 58.914233 C 31.95761 59.527276 32.164351 60.11338 32.424894 60.672782 L 11.290267 71.738257 C 11.290267 71.738257 10.336281 68.132875 10.780737 62.519698 L 31.812012 58.914233 z M 48.613053 61.71923 L 74.943229 78.106344 C 74.943229 78.106344 71.069607 84.240684 67.333875 86.980221 L 47.479272 63.163586 C 47.900739 62.722961 48.283542 62.236485 48.613053 61.71923 z M 33.095654 61.868575 C 33.448154 62.401156 33.854314 62.891515 34.306433 63.339803 L 16.248104 83.317395 C 16.248104 83.317395 13.543455 79.895837 11.849923 74.091085 L 33.095654 61.868575 z M 46.451945 64.087044 L 65.648189 88.332593 C 65.648189 88.332593 60.866502 92.187126 55.329956 94.156527 L 44.846875 65.082849 C 45.417771 64.80698 45.953848 64.470196 46.451945 64.087044 z M 35.455717 64.301501 C 35.957646 64.654001 36.494239 64.96071 37.061304 65.21359 L 26.172046 92.501331 C 26.172046 92.501331 21.014905 89.727678 17.692977 85.256295 L 35.455717 64.301501 z M 43.501737 65.607882 L 52.805046 95.099105 C 52.805046 95.099105 50.042346 96.386401 41.593844 96.792542 L 41.747323 65.960315 C 42.348872 65.899011 42.938504 65.7803 43.501737 65.607882 z M 38.456051 65.704 C 39.038442 65.85726 39.643503 65.956841 40.264209 65.991321 L 39.28339 96.796676 C 39.28339 96.796676 34.306225 96.781506 28.152804 93.586019 L 38.456051 65.704 z " /></g><style
     type="text/css"
     id="style1">
	.st0{fill:#06467C;}
</style></svg>
